<?xml version="1.0" standalone="no"?>
<!DOCTYPE svg PUBLIC "-//W3C//DTD SVG 20010904//EN"
 "http://www.w3.org/TR/2001/REC-SVG-20010904/DTD/svg10.dtd">
<svg version="1.0" xmlns="http://www.w3.org/2000/svg"
 width="1024.000000pt" height="1024.000000pt" viewBox="0 0 1024.000000 1024.000000"
 preserveAspectRatio="xMidYMid meet">

<g transform="translate(0.000000,1024.000000) scale(0.100000,-0.100000)"
fill="currentColor" stroke="none">
<path d="M0 5120 l0 -5120 5120 0 5120 0 0 5120 0 5120 -5120 0 -5120 0 0
-5120z m5187 4781 c75 -46 116 -143 174 -410 171 -782 425 -1181 1016 -1597
545 -384 683 -493 909 -718 185 -185 291 -311 409 -491 281 -425 452 -949 517
-1585 20 -197 17 -825 -5 -1030 -63 -591 -200 -1081 -399 -1431 -319 -563
-869 -890 -1713 -1019 -516 -78 -1330 -85 -1855 -15 -706 95 -1244 338 -1572
709 -252 287 -451 724 -548 1206 -35 171 -74 441 -92 630 -16 171 -16 754 0
915 55 540 160 941 347 1320 149 303 304 515 570 780 214 214 421 379 860 685
368 256 578 464 741 730 152 250 247 510 344 944 50 227 96 331 168 378 35 23
89 23 129 -1z m-2194 -8641 c80 -25 167 -82 213 -140 19 -23 34 -46 34 -49 -1
-3 -32 -25 -70 -49 l-69 -43 -37 40 c-49 55 -88 77 -159 90 -67 12 -157 1
-208 -25 -49 -26 -108 -86 -135 -138 -37 -73 -43 -207 -13 -287 27 -72 75
-127 142 -164 45 -24 69 -30 140 -33 102 -5 151 12 222 77 24 23 48 41 52 41
4 0 37 -21 72 -46 l65 -46 -54 -55 c-224 -228 -644 -163 -783 121 -141 287 -6
611 294 707 79 25 211 25 294 -1z m2238 4 c159 -47 275 -156 330 -310 30 -84
31 -224 1 -319 -57 -186 -204 -311 -392 -334 -318 -41 -570 173 -570 484 0
228 146 421 361 479 73 20 203 20 270 0z m-1541 -194 l0 -200 225 0 225 0 0
200 0 201 88 -3 87 -3 0 -475 0 -475 -87 -3 -88 -3 0 201 0 200 -225 0 -225 0
0 -200 0 -200 -90 0 -90 0 0 473 c0 261 3 477 7 480 3 4 44 7 90 7 l83 0 0
-200z m2648 188 c5 -7 40 -92 77 -188 37 -96 119 -304 181 -462 63 -157 114
-289 114 -293 0 -3 -43 -4 -96 -3 l-95 3 -37 95 -38 95 -210 3 -211 2 -39 -97
-39 -98 -99 -3 c-77 -2 -97 0 -93 10 168 414 238 587 297 738 40 102 77 191
83 198 6 8 40 12 102 12 62 0 96 -4 103 -12z m888 -120 c44 -73 109 -184 145
-246 48 -82 69 -109 76 -100 5 7 54 87 108 178 54 91 118 196 142 233 l43 68
93 -3 92 -3 3 -477 2 -478 -90 0 -90 0 0 333 0 332 -31 -55 c-17 -30 -77 -128
-132 -217 l-101 -163 -47 0 -46 0 -129 216 -129 216 -3 -331 -2 -331 -90 0
-90 0 0 473 c0 261 3 477 7 480 3 4 48 7 98 7 l92 0 79 -132z"/>
<path d="M3160 5820 c-155 -22 -293 -103 -358 -210 -54 -91 -73 -168 -73 -301
0 -237 70 -462 222 -715 202 -337 582 -628 994 -763 351 -115 613 -104 760 31
105 96 136 178 137 363 0 146 -25 285 -83 451 -171 497 -569 902 -1052 1073
-175 62 -402 91 -547 71z"/>
<path d="M6806 5815 c-323 -46 -647 -216 -907 -475 -304 -302 -499 -739 -499
-1117 0 -164 37 -269 122 -349 197 -184 609 -154 1059 77 411 211 716 551 859
954 167 473 61 811 -283 899 -87 23 -237 27 -351 11z"/>
<path d="M5037 1109 c-109 -18 -197 -90 -237 -195 -31 -83 -26 -216 12 -289
54 -104 139 -156 263 -163 111 -6 176 19 244 94 61 67 85 136 84 239 -3 212
-162 348 -366 314z"/>
<path d="M6216 1015 c-9 -21 -16 -39 -16 -41 0 -1 -25 -66 -55 -143 -30 -77
-55 -145 -55 -151 0 -6 52 -10 146 -10 135 0 146 1 139 18 -4 9 -36 93 -71
187 -36 93 -67 171 -69 173 -2 2 -11 -13 -19 -33z"/>
</g>
</svg>
